<?xml version="1.0" encoding="utf-8"?>
<!-- Generator: Adobe Adobe Illustrator 24.2.0, SVG Export Plug-In . SVG Version: 6.00 Build 0)  -->
<svg version="1.1" xmlns="http://www.w3.org/2000/svg" xmlns:xlink="http://www.w3.org/1999/xlink" x="0px" y="0px" width="46px"
	 height="46px" viewBox="0 0 46 46" style="enable-background:new 0 0 46 46;" xml:space="preserve">
<style type="text/css">
	.st0{display:none;}
	.st1{display:inline;fill:#FFFFFF;}
	.st2{fill:#E3D2A7;}
	.st3{fill:#E4A83E;}
	.st4{fill:#B58430;}
	.st5{fill:#DEBD77;}
	.st6{fill:#BCB195;}
	.st7{fill:#FFFFFF;}
	.st8{fill:#3D3834;}
	.st9{fill:#26231F;}
	.st10{fill:#48474A;}
	.st11{fill:#39352F;}
	.st12{fill:#1B1816;}
	.st13{fill:#C08D32;}
	.st14{fill:#444248;}
</style>
<g id="Layer_2" class="st0">
	<ellipse class="st1" cx="2.91" cy="19.61" rx="4.87" ry="0.45"/>
	<polygon class="st1" points="31.73,18.24 27.68,22.6 33.74,25.35 32.22,18.4 	"/>
	<circle class="st1" cx="24.17" cy="32.13" r="11.62"/>
	<polygon class="st1" points="19.95,17.21 19.39,22.29 23.57,20.46 20.43,17.23 	"/>
</g>
<g id="Layer_6">
	<path class="st2" d="M4.01,35.45C4.34,35.9,4.73,36.33,5,36.8c0.13,0.22,0.21,0.45,0.3,0.68c0.6,0.59,1.21,1.16,1.85,1.71
		c1.64,1.39,3.46,2.65,5.41,3.72c1.84,0.65,3.75,1.19,5.6,1.81L9.18,19.6c-0.31-0.74-1.16-1.28-1.98-1.77
		c-0.54-0.32-1.11-0.66-1.8-0.72c-0.56-0.05-1.14,0.11-1.58,0.36c-0.45,0.26-0.77,0.61-1.01,0.99c0,0,0.12,0.03,0.03,0.16
		c-0.5,0.37-0.7,0.9-0.86,1.41c-1.43,4.6-1.02,9.5,1.16,13.94C3.4,34.48,3.67,34.98,4.01,35.45z"/>
	<path class="st2" d="M38.25,23.83c-0.77-0.34-1.59-0.57-2.4-0.81c-2.25-0.65-4.53-1.31-6.89-1.5c-3.74-0.3-8.69-0.01-12.08,1.4
		L6.36,38.25c0.04,0.11,0.52,0.61,1.03,1.13c1.88,1.56,4,2.95,6.26,4.09c0.11,0.05,0.22,0.1,0.33,0.14
		c0.21,0.09,0.42,0.18,0.63,0.27c0.81,0.28,1.62,0.54,2.46,0.76c1.01,0.27,2.04,0.48,3.07,0.65c1.21,0.14,2.43,0.21,3.65,0.2
		c0.47-0.01,1.37-0.08,2.26-0.16c1.65-0.15,3.27-0.52,4.81-1.07c0.7-0.25,1.32-0.47,1.46-0.54c0.99-0.44,2.02-0.81,3-1.26
		c0.23-0.16,0.46-0.32,0.68-0.49c0.8-0.56,1.59-1.13,2.39-1.69c0.24-0.24,0.49-0.48,0.72-0.73c0.88-0.95,1.7-1.95,2.47-2.98
		c0.55-0.74,1.03-1.51,1.53-2.27c0.08-0.26,0.17-0.51,0.23-0.77C44.12,29.79,42.17,25.55,38.25,23.83z"/>
	<g id="Layer_9">
		<path class="st3" d="M42.52,15.16c-0.9-3.84-1.8-7.69-2.69-11.53c-0.08-0.35-0.17-0.7-0.39-1c-0.22-0.3-0.61-0.53-1.02-0.5
			c-0.34,0.03-0.62,0.23-0.87,0.43c-1.66,1.31-2.62,2.56-4.32,4.19c-0.41,0.35-0.4,0.45-0.84,0.82c-0.18,0.15-0.46,0.38-0.63,0.53
			c-0.1,0.09,0.04-0.11-0.03,0l-8.38-1.65c-0.41,0.02-0.81,0.03-1.17-0.14c-0.01,0-0.02-0.01-0.04-0.02
			c-0.04-0.02-0.08-0.03-0.11-0.05c0,0,0-0.01,0.01-0.01c-0.16-0.09-0.29-0.21-0.39-0.34c-2.18-1.72-4.29-3.51-6.31-5.38
			c-0.34,0.13-0.41,0.51-0.43,0.83c-0.16,2.34-0.32,4.67-0.48,7.01c-3.41,0.75-6.35,2.59-8.58,4.9c-2.23,2.31-3.77,5.08-4.76,7.97
			c-0.5,1.79-0.71,3.7-0.53,5.59c0.09,0.94,0.41,2.64,0.47,2.81c0.06,0.16,0.28,0.96,0.47,1.68c0.23,0.84,0.95,2.29,1.04,2.41
			C2.65,33.83,3.09,34.63,3.3,35c0.07,0.12,0.14,0.24,0.22,0.36c0.14,0.2,0.4,0.58,0.7,1.02c0.5,0.54,1.02,1.06,1.56,1.58
			C5.24,36,4.2,32.24,3.67,29.97c-0.73-3.08-1.09-6.3-0.29-9.37c0.2-0.78,0.49-1.57,1.1-2.17c0.61-0.6,1.61-0.96,2.48-0.69
			c0.32,0.1,0.59,0.27,0.85,0.46c0.66,0.5,1.17,1.15,1.42,2.13c2.52-2.18,5.26-4.16,8.13-5.92c0.56,2.96,0.54,6.35,1.04,9.29
			c1.8-1.26,5.13-1.62,5.79-1.7c3.3-0.4,4.38-0.27,6.74,0c0.69,0.08,2.11,0.38,3.5,0.69c0.71,0.16,1.3,0.57,1.93,0.88
			c0.79,0.39,2.76,2.15,3.18,2.75c0.6,1.11,3.59,4.33,3.37,8.07c0.65-0.38,1.88-3.82,2.02-4.49C46.35,23.07,44.97,20.5,42.52,15.16z
			"/>
		<path class="st3" d="M31.19,7.99c-1.25-0.65-2.54-1.01-4.04-1.24c-0.71-0.11-1.3-0.17-2.1-0.21c-0.37-0.02-0.75-0.02-1.12-0.05
			c-0.13-0.01-0.25-0.03-0.38-0.05c-0.01,0-0.02,0-0.04,0C23.05,6.45,22.6,6.5,22.18,6.3c-0.01,0-0.02-0.01-0.04-0.02
			c-0.03-0.02-0.06-0.03-0.1-0.04c-0.11,0.04-0.23,0.06-0.34,0.1l11.31,2.19c-0.18-0.18-0.39-0.34-0.59-0.5
			C32.04,8.18,31.58,8.19,31.19,7.99z"/>
		<path class="st4" d="M37.05,8.76c-0.02,0.02,0.51,0.67,0.51,0.7c-0.02,0.13,1.59,1.7,2.6,2.83c-0.75-1.7-1.46-5.96-1.46-5.96
			s-0.08-0.91-0.11-0.97c-0.06-0.12-0.06-1.03-0.1-0.98c-0.01,0.01-0.08-0.66-0.12-1.11c-1.71,1.79-5.73,5.47-5.9,5.49
			c-0.21,0.14-0.43,0.28-0.7,0.48c0.07,0.18,2.27-0.19,2.48-0.19c0.34,0-0.1,0,0.24,0c0.11,0,2.49-0.25,2.55-0.28
			c0.02-0.01-0.04-0.01-0.02,0C37.04,8.79,37.23,8.62,37.05,8.76z"/>
		<g id="Layer_4">
			<path class="st5" d="M12.97,21.76c1.88,1.49,3.7,2.56,5.88,3.68c-1-3.66-0.84-7.7-1.32-11.44"/>
			<path class="st5" d="M7.68,21.29c1.93,0.43,3.89,0.71,5.85,0.85c0.05,0,0.11,0.01,0.16-0.02c0.05-0.03,0.08-0.08,0.11-0.13
				c1.03-1.87,1.64-2.24,2.45-4.21c0.34-0.82,0.36-2.05,0.94-2.71c-0.01,0,0.4-1.19,0.39-1.19"/>
			<g id="Layer_5">
				<path class="st6" d="M16.26,25.82c0.03,0.04,0.05,0.09,0.08,0.13"/>
				<path class="st6" d="M6.87,24.3c-0.68,0.99-1.06,2.29-0.32,3.25c0.43,0.56,1.18,0.89,1.94,1.06c0.76,0.16,1.54,0.18,2.32,0.27
					c0.81,0.09,1.62,0.24,2.4,0.47c1.06,0.3,2.17,0.73,3.25,0.49c0.89-0.2,1.57-0.81,2.07-1.48c0.64-0.85,1.06-2,0.41-2.85
					c-0.31-0.41-0.82-0.66-1.3-0.92c-1.45-0.78-2.78-1.7-4.02-2.73c-1.36-0.53-2.96-0.17-4.41-0.48c-0.58-0.12-1.28-0.34-1.73,0.01
					c-0.27,0.2-0.34,0.53-0.39,0.84C6.91,23.17,6.74,24.12,6.87,24.3z"/>
				<g id="Layer_3">
					<path d="M19.2,17.59c0.47-0.76,1.07-1.47,1.89-1.95s1.89-0.69,2.83-0.41c1.06,0.32,1.76,1.19,2.34,2.02
						c0.07,0.11,0.15,0.22,0.17,0.34c0.05,0.28-0.18,0.53-0.4,0.74c-0.71,0.69-1.51,1.42-2.57,1.56c-0.95,0.13-1.88-0.26-2.7-0.7
						C20.05,18.79,19.31,18.27,19.2,17.59z"/>
					<path d="M8.3,15.72c0.2-0.61,0.44-1.22,0.9-1.71c0.46-0.49,1.18-0.84,1.9-0.75c0.55,0.07,1.02,0.38,1.43,0.7
						c0.3,0.23,0.58,0.48,0.77,0.78c0.29,0.46,0.32,1.02,0.13,1.52c-0.18,0.5-0.57,0.93-1.05,1.24c-0.49,0.32-1.11,0.53-1.72,0.43
						c-0.54-0.09-0.98-0.42-1.4-0.73C9,16.99,8.72,16.78,8.52,16.51C8.33,16.24,8.24,15.91,8.3,15.72z"/>
					<path d="M9.6,21.67c-0.45-0.08-0.91-0.14-1.37-0.18c-0.26-0.02-0.54-0.03-0.77,0.08c-0.3,0.15-0.43,0.46-0.53,0.74
						C6.8,22.66,6.68,23,6.55,23.35c-0.11,0.3-0.22,0.61-0.18,0.92c0.08,0.67,0.79,1.13,1.43,1.5c0.29,0.17,0.57,0.33,0.86,0.5
						c0.21,0.12,0.43,0.25,0.67,0.31c0.47,0.12,0.97,0,1.43-0.13c0.45-0.13,0.89-0.26,1.32-0.42c0.84-0.31,1.69-0.78,1.97-1.53
						c0.23-0.62,0.01-1.28-0.21-1.9c-0.05-0.15-0.12-0.32-0.27-0.41c-0.11-0.07-0.25-0.08-0.38-0.1c-0.55-0.06-1.11-0.12-1.66-0.18
						c-1.32-0.15-2.65-0.29-3.97-0.44"/>
					<g id="Layer_10">
						<path class="st7" d="M24.78,16.23c-0.37-0.28-0.87-0.43-1.36-0.4c-0.49,0.03-0.97,0.26-1.23,0.61
							c-0.13,0.18-0.21,0.38-0.26,0.58c-0.11,0.45-0.07,0.93,0.16,1.34c0.23,0.41,0.67,0.74,1.19,0.83c0.52,0.09,1.1-0.09,1.39-0.46
							c-0.14,0.36-0.5,0.63-0.92,0.74s-0.87,0.07-1.27-0.07c-0.72-0.25-1.26-0.84-1.4-1.5c-0.14-0.66,0.14-1.37,0.72-1.83
							c0.57-0.45,1.42-0.63,2.16-0.45c0.41,0.1,0.82,0.33,0.95,0.68C24.91,16.3,24.89,16.31,24.78,16.23z"/>
						<path class="st7" d="M11.69,14.46c-0.25-0.09-0.55-0.05-0.8,0.05c-0.62,0.25-1.02,0.87-0.92,1.46c0.09,0.59,0.66,1.1,1.33,1.2
							c-0.35,0.2-0.83,0.17-1.19-0.01c-0.37-0.18-0.63-0.48-0.82-0.8c-0.1-0.18-0.19-0.36-0.22-0.56c-0.03-0.21,0.01-0.43,0.08-0.63
							c0.06-0.2,0.14-0.41,0.28-0.58c0.26-0.34,0.7-0.57,1.17-0.59S11.54,14.15,11.69,14.46z"/>
						<g id="Layer_1">
							<path class="st9" d="M14.25,30.01c-0.97-0.75-0.55-0.99-1.73-1.53c1.75,0.52,1.92,0.79,3.54,1.52"/>
							<path class="st10" d="M10.59,28.16c-1.85-0.07-1.08-0.07-2.95-0.14c0.58,0.5,0.27,0.19,0.71,0.69c0.01,0.01-0.02,0.02,0,0.01
								S9.19,28.47,10.59,28.16z"/>
							<path class="st11" d="M14.15,30.69c0.62,0.16,0.25-0.22,0.3-0.26c0.13-0.1,0.33,0.21,0.47,0.09
								c0.14-0.12,0.06-0.18,0.27-0.22c-0.45-0.21-0.56-0.32-0.99-0.4c-1.89-0.59-3.89-1.01-5.92-1.3c0.25,0.27,0.42,0.53,0.67,0.78
								C11.03,29.93,11.95,30.13,14.15,30.69z"/>
							<path class="st12" d="M18.53,30.39c0,0-3.79-0.42-3.67-0.47c-0.39,0.09-0.66,0.39-0.62,0.69c0.01,0.04,0.02,0.08,0.05,0.1
								c0.05,0.03,0.12,0.03,0.19,0.03c1.9-0.09,3.81-0.18,5.71-0.27c0.25-0.01,0.54-0.04,0.68-0.2c0.15-0.17,0.01-0.42-0.23-0.53
								c-0.24-0.11-0.53-0.12-0.81-0.11c-1.7,0.03-3.37,0.43-5.07,0.35"/>
							<polygon points="12.21,27.72 8.28,28.64 15.16,30.14 							"/>
							<g id="Layer_13">
								<path class="st13" d="M16.3,8.09c0.01-2.15-0.07-4.3-0.27-6.44c2.03,1.55,5.65,4.67,5.65,4.67s-0.22,0.08-3.53,0.09
									c-0.03,0-0.05,0-0.08,0C17.21,7.25,17.07,7.43,16.3,8.09z"/>
								<path class="st13" d="M15.95,8.04l-0.08,0.11L15.95,8.04z"/>
								<g id="Layer_12" class="st0">
								</g>
							</g>
						</g>
					</g>
				</g>
			</g>
		</g>
	</g>
</g>
<g id="Layer_14">
</g>
<g id="Layer_8">
</g>
<g id="Layer_7">
</g>
<g id="Layer_11">
</g>
</svg>
